<svg width="24" height="24" viewBox="0 0 24 24" fill="none" xmlns="http://www.w3.org/2000/svg">
<path d="M13.1582 6.89478C15.9253 6.89478 17.1055 8.07504 17.1055 10.8421H19.7371C19.7371 6.59873 17.4016 4.26321 13.1582 4.26321V6.89478ZM17.6608 14.0566C17.408 13.8268 17.0757 13.7042 16.7342 13.7148C16.3927 13.7253 16.0687 13.8682 15.8305 14.1132L12.6819 17.3513C11.924 17.2066 10.4003 16.7316 8.8319 15.1671C7.26349 13.5974 6.78849 12.0698 6.6477 11.3171L9.88321 8.16714C10.1285 7.92915 10.2715 7.60507 10.2821 7.26347C10.2927 6.92187 10.1699 6.58957 9.93979 6.33689L5.07798 0.990864C4.84777 0.737387 4.52782 0.583635 4.18608 0.562261C3.84433 0.540886 3.50772 0.653574 3.24772 0.876391L0.392474 3.32506C0.16499 3.55337 0.0292124 3.85723 0.0108973 4.179C-0.00883947 4.50795 -0.385153 12.3 5.65692 18.3447C10.9279 23.6144 17.5305 23.9999 19.3489 23.9999C19.6147 23.9999 19.7779 23.9921 19.8213 23.9894C20.143 23.9714 20.4467 23.835 20.6739 23.6065L23.1213 20.75C23.3443 20.4901 23.4572 20.1536 23.4361 19.8119C23.4149 19.4701 23.2614 19.1501 23.0081 18.9197L17.6608 14.0566Z" fill="#226ED8"/>
</svg>
